#N canvas -1 81 1366 687 10;
#X declare -lib mrpeach;
#X obj -63 -872 import mrpeach;
#X msg 135 -514 disconnect;
#X obj 240 -490 tgl 15 0 empty empty connexion 17 7 0 10 -257985 -1
-1 1 1;
#X obj 138 -489 udpsend;
#X msg 83 -535 connect localhost 12345;
#X obj 330 -520 packOSC;
#X obj -37 -552 packOSC;
#X msg 105 -861 0;
#X msg 138 -863 1;
#X msg 112 -837 send /mapmap/mapping/visible 1 \$1;
#X msg 116 -815 0;
#X msg 149 -817 1;
#X msg 123 -791 send /mapmap/mapping/visible 2 \$1;
#X msg 123 -767 send /mapmap/mapping/visible 3 \$1;
#X msg 112 -740 0;
#X msg 145 -742 1;
#X msg 119 -716 send /mapmap/mapping/visible 4 \$1;
#X msg 119 -692 send /mapmap/mapping/visible 5 \$1;
#X msg 196 -301 send /mapmap/paint/rate 1 \$1;
#X msg -52 -780 send /mapmap/paint/rewind 1;
#X msg -61 -823 send /mapmap/play;
#X msg -58 -801 send /mapmap/pause;
#X msg 114 -660 0;
#X msg 147 -662 1;
#X msg 122 -637 send /mapmap/mapping/visible 6 \$1;
#X msg 121 -612 send /mapmap/mapping/visible 7 \$1;
#X msg 118 -588 send /mapmap/mapping/visible 8 \$1;
#X msg 309 -877 send /mapmap/paint/uri 1 /home/ray/scenes/Plateau_1.jpg
;
#X msg 318 -855 send /mapmap/paint/uri 1 /home/ray/scenes/Plateau_2.jpg
;
#X msg 327 -833 send /mapmap/paint/uri 1 /home/ray/scenes/Sc_1_1.gif
;
#X msg 343 -790 send /mapmap/paint/uri 1 /home/ray/scenes/Sc_2_1.jpg
;
#X msg 335 -812 send /mapmap/paint/uri 1 /home/ray/scenes/Sc_1_2.gif
;
#X msg 349 -769 send /mapmap/paint/uri 1 /home/ray/scenes/Sc_3_1.jpg
;
#X msg 357 -745 send /mapmap/paint/uri 1 /home/ray/scenes/Sc_3_2.gif
;
#X msg 365 -724 send /mapmap/paint/uri 1 /home/ray/scenes/Sc_3_3.gif
;
#X msg 373 -701 send /mapmap/paint/uri 1 /home/ray/scenes/Sc_4.gif
;
#X msg 379 -678 send /mapmap/paint/uri 1 /home/ray/scenes/Sc_5.png
;
#X msg 386 -655 send /mapmap/paint/uri 1 /home/ray/scenes/Sc_6_1.jpg
;
#X msg 394 -634 send /mapmap/paint/uri 1 /home/ray/scenes/Sc_6_2.jpg
;
#X msg 400 -612 send /mapmap/paint/uri 1 /home/ray/scenes/Sc_6_3.jpg
;
#X msg 408 -591 send /mapmap/paint/uri 1 /home/ray/scenes/Sc_6_4.jpg
;
#X msg 415 -570 send /mapmap/paint/uri 1 /home/ray/scenes/Sc_6_5.jpg
;
#X msg 423 -549 send /mapmap/paint/uri 1 /home/ray/scenes/Sc_6_6.jpg
;
#X msg 429 -527 send /mapmap/paint/uri 1 /home/ray/scenes/Sc_6_7.jpg
;
#X msg 437 -506 send /mapmap/paint/uri 1 /home/ray/scenes/Sc_6_8.gif
;
#X msg 446 -483 send /mapmap/paint/uri 1 /home/ray/scenes/Sc_6_9.gif
;
#X msg 452 -461 send /mapmap/paint/uri 1 /home/ray/scenes/Sc_6_10.jpg
;
#X msg 420 -379 0.02;
#X obj 680 -840 bng 15 250 50 0 empty empty empty 17 7 0 10 -262144
-1 -1;
#X obj 674 -791 bng 15 250 50 0 empty empty empty 17 7 0 10 -262144
-1 -1;
#X obj 686 -768 bng 15 250 50 0 empty empty empty 17 7 0 10 -262144
-1 -1;
#X obj 717 -767 bng 15 250 50 0 empty empty empty 17 7 0 10 -262144
-1 -1;
#X msg 349 -400 10;
#X obj 691 -745 bng 15 250 50 0 empty empty empty 17 7 0 10 -262144
-1 -1;
#X obj 695 -721 bng 15 250 50 0 empty empty empty 17 7 0 10 -262144
-1 -1;
#X msg 481 -365 0.01;
#X obj 699 -699 bng 15 250 50 0 empty empty empty 17 7 0 10 -262144
-1 -1;
#X obj 678 -811 bng 15 250 50 0 empty empty empty 17 7 0 10 -262144
-1 -1;
#X obj 706 -811 bng 15 250 50 0 empty empty empty 17 7 0 10 -262144
-1 -1;
#X obj 729 -698 bng 15 250 50 0 empty empty empty 17 7 0 10 -262144
-1 -1;
#X obj 707 -679 bng 15 250 50 0 empty empty empty 17 7 0 10 -262144
-1 -1;
#X obj 723 -722 bng 15 250 50 0 empty empty empty 17 7 0 10 -262144
-1 -1;
#X text 702 -841 1;
#X text 695 -817 2;
#X text 724 -816 3;
#X text 691 -794 4;
#X text 705 -771 5;
#X text 736 -771 6;
#X text 708 -749 7;
#X text 713 -728 8;
#X text 741 -728 9;
#X text 714 -703 10;
#X text 747 -700 11;
#X text 728 -680 12;
#X obj 715 -657 bng 15 250 50 0 empty empty empty 17 7 0 10 -262144
-1 -1;
#X text 733 -658 13;
#X obj 721 -634 bng 15 250 50 0 empty empty empty 17 7 0 10 -262144
-1 -1;
#X obj 728 -613 bng 15 250 50 0 empty empty empty 17 7 0 10 -262144
-1 -1;
#X obj 735 -592 bng 15 250 50 0 empty empty empty 17 7 0 10 -262144
-1 -1;
#X obj 743 -570 bng 15 250 50 0 empty empty empty 17 7 0 10 -262144
-1 -1;
#X obj 752 -550 bng 15 250 50 0 empty empty empty 17 7 0 10 -262144
-1 -1;
#X obj 759 -528 bng 15 250 50 0 empty empty empty 17 7 0 10 -262144
-1 -1;
#X obj 769 -508 bng 15 250 50 0 empty empty empty 17 7 0 10 -262144
-1 -1;
#X text 741 -636 14;
#X text 745 -615 15;
#X text 753 -594 16;
#X text 762 -573 17;
#X text 772 -552 18;
#X text 778 -530 19;
#X text 790 -509 20;
#X text 833 -509 21;
#X obj 774 -484 bng 15 250 50 0 empty empty empty 17 7 0 10 -262144
-1 -1;
#X obj 788 -461 bng 15 250 50 0 empty empty empty 17 7 0 10 -262144
-1 -1;
#X obj 796 -439 bng 15 250 50 0 empty empty empty 17 7 0 10 -262144
-1 -1;
#X text 881 -508 22;
#X text 794 -487 23;
#X obj 815 -507 bng 15 250 50 0 empty empty empty 17 7 0 10 -262144
-1 -1;
#X obj 860 -507 bng 15 250 50 0 empty empty empty 17 7 0 10 -262144
-1 -1;
#X text 812 -464 24;
#X text 823 -438 25;
#X msg 461 -441 send /mapmap/paint/uri 1 /home/ray/scenes/Sc_10.gif
;
#X msg 393 -406 0.2;
#X msg 552 -366 0.03;
#X connect 1 0 3 0;
#X connect 3 0 2 0;
#X connect 4 0 3 0;
#X connect 5 0 3 0;
#X connect 6 0 3 0;
#X connect 7 0 9 0;
#X connect 8 0 9 0;
#X connect 9 0 6 0;
#X connect 10 0 12 0;
#X connect 10 0 13 0;
#X connect 11 0 12 0;
#X connect 11 0 13 0;
#X connect 12 0 6 0;
#X connect 13 0 6 0;
#X connect 14 0 16 0;
#X connect 14 0 17 0;
#X connect 15 0 16 0;
#X connect 15 0 17 0;
#X connect 16 0 6 0;
#X connect 17 0 6 0;
#X connect 18 0 6 0;
#X connect 19 0 6 0;
#X connect 20 0 6 0;
#X connect 21 0 6 0;
#X connect 22 0 24 0;
#X connect 22 0 25 0;
#X connect 22 0 26 0;
#X connect 23 0 24 0;
#X connect 23 0 25 0;
#X connect 23 0 26 0;
#X connect 24 0 6 0;
#X connect 25 0 6 0;
#X connect 26 0 6 0;
#X connect 27 0 5 0;
#X connect 28 0 5 0;
#X connect 29 0 5 0;
#X connect 30 0 5 0;
#X connect 31 0 5 0;
#X connect 32 0 5 0;
#X connect 33 0 5 0;
#X connect 34 0 5 0;
#X connect 35 0 5 0;
#X connect 36 0 5 0;
#X connect 37 0 5 0;
#X connect 38 0 5 0;
#X connect 39 0 5 0;
#X connect 40 0 5 0;
#X connect 41 0 5 0;
#X connect 42 0 5 0;
#X connect 43 0 5 0;
#X connect 44 0 5 0;
#X connect 45 0 5 0;
#X connect 46 0 5 0;
#X connect 47 0 18 0;
#X connect 48 0 29 0;
#X connect 48 0 47 0;
#X connect 48 0 8 0;
#X connect 48 0 10 0;
#X connect 48 0 15 0;
#X connect 48 0 22 0;
#X connect 48 0 20 0;
#X connect 49 0 30 0;
#X connect 49 0 11 0;
#X connect 49 0 14 0;
#X connect 50 0 10 0;
#X connect 51 0 32 0;
#X connect 51 0 15 0;
#X connect 52 0 18 0;
#X connect 53 0 52 0;
#X connect 53 0 33 0;
#X connect 53 0 20 0;
#X connect 54 0 34 0;
#X connect 54 0 47 0;
#X connect 54 0 20 0;
#X connect 55 0 18 0;
#X connect 56 0 35 0;
#X connect 56 0 20 0;
#X connect 56 0 101 0;
#X connect 57 0 31 0;
#X connect 58 0 21 0;
#X connect 59 0 21 0;
#X connect 60 0 36 0;
#X connect 60 0 23 0;
#X connect 61 0 21 0;
#X connect 74 0 37 0;
#X connect 74 0 22 0;
#X connect 76 0 38 0;
#X connect 77 0 39 0;
#X connect 78 0 40 0;
#X connect 79 0 41 0;
#X connect 80 0 42 0;
#X connect 81 0 43 0;
#X connect 82 0 44 0;
#X connect 82 0 20 0;
#X connect 82 0 55 0;
#X connect 91 0 45 0;
#X connect 91 0 55 0;
#X connect 91 0 20 0;
#X connect 92 0 46 0;
#X connect 93 0 100 0;
#X connect 96 0 21 0;
#X connect 97 0 102 0;
#X connect 97 0 20 0;
#X connect 100 0 5 0;
#X connect 101 0 18 0;
#X connect 102 0 18 0;
