#N canvas 1 81 1351 686 10;
#X declare -lib mrpeach;
#X obj -9 -791 import mrpeach;
#X obj 89 -771 stripnote;
#X obj 90 -791 notein;
#X obj 89 -750 s note;
#X obj -6 -717 cnv 15 540 550 empty empty Boutons_APCMini 20 12 0 14
-233017 -66577 0;
#X obj 23 -278 sel 0;
#X obj 80 -278 sel 1;
#X obj 138 -278 sel 2;
#X obj 195 -278 sel 3;
#X obj 252 -278 sel 4;
#X obj 309 -278 sel 5;
#X obj 366 -278 sel 6;
#X obj 423 -278 sel 7;
#X obj 23 -342 sel 8;
#X obj 80 -342 sel 9;
#X obj 138 -342 sel 10;
#X obj 195 -342 sel 11;
#X obj 252 -342 sel 12;
#X obj 309 -342 sel 13;
#X obj 366 -342 sel 14;
#X obj 423 -342 sel 15;
#X obj 21 -396 sel 16;
#X obj 78 -396 sel 17;
#X obj 136 -396 sel 18;
#X obj 193 -396 sel 19;
#X obj 250 -396 sel 20;
#X obj 307 -396 sel 21;
#X obj 364 -396 sel 22;
#X obj 421 -396 sel 23;
#X obj 136 -448 sel 26;
#X obj 193 -448 sel 27;
#X obj 250 -448 sel 28;
#X obj 307 -448 sel 29;
#X obj 364 -448 sel 30;
#X obj 421 -448 sel 31;
#X obj 16 -500 sel 32;
#X obj 73 -500 sel 33;
#X obj 131 -500 sel 34;
#X obj 188 -500 sel 35;
#X obj 245 -500 sel 36;
#X obj 302 -500 sel 37;
#X obj 359 -500 sel 38;
#X obj 416 -500 sel 39;
#X obj 78 -448 sel 25;
#X obj 21 -448 sel 24;
#X obj 16 -549 sel 40;
#X obj 73 -549 sel 41;
#X obj 131 -549 sel 42;
#X obj 188 -549 sel 43;
#X obj 245 -549 sel 44;
#X obj 302 -549 sel 45;
#X obj 359 -549 sel 46;
#X obj 416 -549 sel 47;
#X obj 16 -604 sel 48;
#X obj 73 -604 sel 49;
#X obj 131 -604 sel 50;
#X obj 188 -604 sel 51;
#X obj 245 -604 sel 52;
#X obj 302 -604 sel 53;
#X obj 359 -604 sel 54;
#X obj 416 -604 sel 55;
#X obj 16 -660 sel 56;
#X obj 73 -660 sel 57;
#X obj 131 -660 sel 58;
#X obj 188 -660 sel 59;
#X obj 245 -660 sel 60;
#X obj 302 -660 sel 61;
#X obj 359 -660 sel 62;
#X obj 416 -660 sel 63;
#X obj 21 -220 sel 64;
#X obj 78 -220 sel 65;
#X obj 136 -220 sel 66;
#X obj 193 -220 sel 67;
#X obj 250 -220 sel 68;
#X obj 307 -220 sel 69;
#X obj 364 -220 sel 70;
#X obj 421 -220 sel 71;
#X obj 482 -660 sel 82;
#X obj 482 -604 sel 83;
#X obj 482 -549 sel 84;
#X obj 482 -500 sel 85;
#X obj 487 -448 sel 86;
#X obj 487 -396 sel 87;
#X obj 489 -342 sel 88;
#X obj 489 -278 sel 89;
#X obj 487 -220 sel 98;
#X obj -3 -690 r note;
#X obj 57 -690 r note;
#X obj 114 -689 r note;
#X obj 171 -689 r note;
#X obj 228 -690 r note;
#X obj 288 -690 r note;
#X obj 345 -689 r note;
#X obj 401 -689 r note;
#X obj 469 -688 r note;
#X obj 22 -637 s n56;
#X obj 77 -637 s n57;
#X obj 137 -637 s n58;
#X obj 192 -637 s n59;
#X obj 253 -637 s n60;
#X obj 308 -637 s n61;
#X obj 368 -637 s n62;
#X obj 423 -637 s n63;
#X obj 22 -583 s n48;
#X obj 77 -583 s n49;
#X obj 137 -583 s n50;
#X obj 192 -583 s n51;
#X obj 253 -583 s n52;
#X obj 308 -583 s n53;
#X obj 368 -583 s n54;
#X obj 423 -583 s n55;
#X obj 488 -583 s n83;
#X obj 22 -527 s n40;
#X obj 77 -527 s n41;
#X obj 137 -527 s n42;
#X obj 192 -527 s n43;
#X obj 253 -527 s n44;
#X obj 308 -527 s n45;
#X obj 368 -527 s n46;
#X obj 423 -527 s n47;
#X obj 488 -527 s n84;
#X obj 26 -478 s n32;
#X obj 81 -478 s n33;
#X obj 141 -478 s n34;
#X obj 196 -478 s n35;
#X obj 257 -478 s n36;
#X obj 312 -478 s n37;
#X obj 372 -478 s n38;
#X obj 427 -478 s n39;
#X obj 492 -478 s n85;
#X obj 27 -426 s n24;
#X obj 82 -426 s n25;
#X obj 142 -426 s n26;
#X obj 197 -426 s n27;
#X obj 258 -426 s n28;
#X obj 313 -426 s n29;
#X obj 373 -426 s n30;
#X obj 428 -426 s n31;
#X obj 493 -426 s n86;
#X obj 28 -376 s n16;
#X obj 83 -376 s n17;
#X obj 143 -376 s n18;
#X obj 198 -376 s n19;
#X obj 259 -376 s n20;
#X obj 314 -376 s n21;
#X obj 374 -376 s n22;
#X obj 429 -376 s n23;
#X obj 27 -321 s n8;
#X obj 82 -321 s n9;
#X obj 142 -321 s n10;
#X obj 197 -321 s n11;
#X obj 258 -321 s n12;
#X obj 313 -321 s n13;
#X obj 373 -321 s n14;
#X obj 428 -321 s n15;
#X obj 28 -257 s n0;
#X obj 83 -257 s n1;
#X obj 143 -257 s n2;
#X obj 198 -257 s n3;
#X obj 259 -257 s n4;
#X obj 314 -257 s n5;
#X obj 374 -257 s n6;
#X obj 429 -257 s n7;
#X obj 27 -200 s n64;
#X obj 82 -200 s n65;
#X obj 142 -200 s n66;
#X obj 197 -200 s n67;
#X obj 258 -200 s n68;
#X obj 313 -200 s n69;
#X obj 373 -200 s n70;
#X obj 428 -200 s n71;
#X obj 493 -374 s n87;
#X msg 608 -67 disconnect;
#X obj 660 27 tgl 15 0 empty empty connexion 17 7 0 10 -257985 -1 -1
0 1;
#X obj 658 -17 udpsend;
#X msg 556 -88 connect localhost 12345;
#X msg 813 -381 send /mapmap/paint/uri 1 /home/ray/scenes/Sc_2_1.png
;
#X msg 833 -335 send /mapmap/paint/uri 1 /home/ray/scenes/Sc_2_3.png
;
#X msg 849 -290 send /mapmap/paint/uri 1 /home/ray/scenes/Sc_2_5.png
;
#X msg 869 -244 send /mapmap/paint/uri 1 /home/ray/scenes/Sc_2_7.png
;
#X msg 884 -200 send /mapmap/paint/uri 1 /home/ray/scenes/Sc_2_9.png
;
#X msg 904 -154 send /mapmap/paint/uri 1 /home/ray/scenes/Sc_1_1.png
;
#X msg 920 -109 send /mapmap/paint/uri 1 /home/ray/scenes/Sc_1_3.png
;
#X msg 940 -63 send /mapmap/paint/uri 1 /home/ray/scenes/Sc_1_5.png
;
#X msg 956 -18 send /mapmap/paint/uri 1 /home/ray/scenes/Sc_1_7.png
;
#X msg 976 28 send /mapmap/paint/uri 1 /home/ray/scenes/Sc_1_9.png
;
#X msg 992 73 send /mapmap/paint/uri 1 /home/ray/scenes/Sc_3_2.png
;
#X msg 1012 119 send /mapmap/paint/uri 1 /home/ray/scenes/Sc_3_4.png
;
#X msg 1027 163 send /mapmap/paint/uri 1 /home/ray/scenes/Sc_3_6.png
;
#X msg 1048 208 send /mapmap/paint/uri 1 /home/ray/scenes/Sc_3_8.png
;
#X msg 1063 254 send /mapmap/paint/uri 1 /home/ray/scenes/Sc_4_1.png
;
#X msg 1083 300 send /mapmap/paint/uri 1 /home/ray/scenes/Sc_4_3.png
;
#X msg 1099 344 send /mapmap/paint/uri 2 /home/ray/scenes/Sc_4_5.png
;
#X msg 1107 367 send /mapmap/paint/uri 1 /home/ray/scenes/Sc_4_6.png
;
#X msg 1118 391 send /mapmap/paint/uri 2 /home/ray/scenes/Sc_4_7.png
;
#X msg 1127 413 send /mapmap/paint/uri 1 /home/ray/scenes/Sc_4_8.png
;
#X msg 1135 435 send /mapmap/paint/uri 2 /home/ray/scenes/Sc_4_9.png
;
#X msg 1142 457 send /mapmap/paint/uri 1 /home/ray/scenes/Sc_4_10.png
;
#X msg 1153 481 send /mapmap/paint/uri 2 /home/ray/scenes/Sc_4_11.png
;
#X msg 1163 502 send /mapmap/paint/uri 1 /home/ray/scenes/Sc_4_12.png
;
#X msg 1170 525 send /mapmap/paint/uri 2 /home/ray/scenes/Sc_5.png
;
#X msg 1178 548 send /mapmap/paint/uri 1 /home/ray/scenes/Sc_6_1.png
;
#X msg 1190 572 send /mapmap/paint/uri 2 /home/ray/scenes/Sc_6_2.png
;
#X msg 1198 594 send /mapmap/paint/uri 1 /home/ray/scenes/Sc_6_3.png
;
#X msg 1206 616 send /mapmap/paint/uri 2 /home/ray/scenes/Sc_6_4.png
;
#X msg 1218 639 send /mapmap/paint/uri 1 /home/ray/scenes/Sc_6_5.png
;
#X msg 1226 661 send /mapmap/paint/uri 2 /home/ray/scenes/Sc_6_6.png
;
#X msg 1237 684 send /mapmap/paint/uri 1 /home/ray/scenes/Sc_6_7.png
;
#X msg 1248 708 send /mapmap/paint/uri 2 /home/ray/scenes/Sc_6_8.png
;
#X msg 1257 730 send /mapmap/paint/uri 1 /home/ray/scenes/Sc_6_9.png
;
#X msg 1265 752 send /mapmap/paint/uri 2 /home/ray/scenes/Sc_6_10.png
;
#X msg 1272 774 send /mapmap/paint/uri 1 /home/ray/scenes/Sc_6_11.png
;
#X msg 1283 798 send /mapmap/paint/uri 2 /home/ray/scenes/Sc_6_12.png
;
#X msg 1293 819 send /mapmap/paint/uri 1 /home/ray/scenes/Sc_6_13.png
;
#X msg 1300 842 send /mapmap/paint/uri 2 /home/ray/scenes/Sc_6_14.png
;
#X msg 1308 865 send /mapmap/paint/uri 1 /home/ray/scenes/Sc_6_15.png
;
#X msg 1320 889 send /mapmap/paint/uri 2 /home/ray/scenes/Sc_6_16.png
;
#X msg 1328 911 send /mapmap/paint/uri 1 /home/ray/scenes/Sc_6_17.png
;
#X msg 1336 933 send /mapmap/paint/uri 2 /home/ray/scenes/Sc_7_1.png
;
#X obj 967 202 packOSC;
#X obj 744 -407 r n56;
#X obj 755 -381 r n57;
#X obj 761 -357 r n58;
#X obj 768 -335 r n59;
#X obj 776 -311 r n60;
#X obj 792 -284 r n61;
#X obj 796 -260 r n62;
#X obj 807 -238 r n63;
#X obj 757 -216 r n48;
#X obj 767 -197 r n49;
#X obj 773 -173 r n50;
#X obj 780 -151 r n51;
#X obj 788 -127 r n52;
#X obj 804 -100 r n53;
#X obj 808 -76 r n54;
#X obj 819 -54 r n55;
#X obj 820 -34 r n40;
#X obj 830 -15 r n41;
#X obj 836 9 r n42;
#X obj 843 31 r n43;
#X obj 851 55 r n44;
#X obj 867 82 r n45;
#X obj 871 106 r n46;
#X obj 882 128 r n47;
#X obj 859 149 r n32;
#X obj 869 168 r n33;
#X obj 875 192 r n34;
#X obj 882 214 r n35;
#X obj 890 238 r n36;
#X obj 900 261 r n37;
#X obj 904 285 r n38;
#X obj 915 307 r n39;
#X obj 9 -94 noteout;
#X obj 10 -137 t b b;
#X msg 37 -117 1;
#X obj 10 -158 r n56;
#X msg 9 -117 56;
#X obj 66 -94 noteout;
#X obj 67 -137 t b b;
#X msg 94 -117 1;
#X obj 67 -158 r n57;
#X msg 66 -117 57;
#X obj 123 -94 noteout;
#X obj 124 -137 t b b;
#X msg 151 -117 1;
#X obj 180 -94 noteout;
#X obj 184 -137 t b b;
#X msg 208 -117 1;
#X obj 124 -158 r n58;
#X obj 181 -158 r n59;
#X msg 123 -117 58;
#X msg 180 -117 59;
#X obj 240 -94 noteout;
#X obj 241 -137 t b b;
#X msg 268 -117 1;
#X obj 297 -94 noteout;
#X obj 298 -137 t b b;
#X msg 325 -117 1;
#X obj 354 -94 noteout;
#X obj 355 -137 t b b;
#X msg 382 -117 1;
#X obj 411 -94 noteout;
#X obj 412 -137 t b b;
#X msg 439 -117 1;
#X msg 240 -117 60;
#X msg 297 -117 61;
#X msg 354 -117 62;
#X msg 411 -117 63;
#X obj 241 -158 r n60;
#X obj 298 -158 r n61;
#X obj 355 -158 r n62;
#X obj 412 -158 r n63;
#X obj 490 -198 s n98;
#X obj 496 -255 s n89;
#X obj 496 -319 s n88;
#X obj 489 -636 s n82;
#X msg 824 -357 send /mapmap/paint/uri 1 /home/ray/scenes/Sc_2_2.png
;
#X msg 841 -313 send /mapmap/paint/uri 1 /home/ray/scenes/Sc_2_4.png
;
#X msg 860 -266 send /mapmap/paint/uri 1 /home/ray/scenes/Sc_2_6.png
;
#X msg 877 -222 send /mapmap/paint/uri 1 /home/ray/scenes/Sc_2_8.png
;
#X msg 895 -176 send /mapmap/paint/uri 1 /home/ray/scenes/Sc_2_10.png
;
#X msg 912 -132 send /mapmap/paint/uri 1 /home/ray/scenes/Sc_1_2.png
;
#X msg 931 -85 send /mapmap/paint/uri 1 /home/ray/scenes/Sc_1_4.png
;
#X msg 948 -41 send /mapmap/paint/uri 1 /home/ray/scenes/Sc_1_6.png
;
#X msg 967 6 send /mapmap/paint/uri 1 /home/ray/scenes/Sc_1_8.png;
#X msg 984 50 send /mapmap/paint/uri 1 /home/ray/scenes/Sc_3_1.png
;
#X msg 1003 97 send /mapmap/paint/uri 1 /home/ray/scenes/Sc_3_3.png
;
#X msg 1020 141 send /mapmap/paint/uri 1 /home/ray/scenes/Sc_3_5.png
;
#X msg 1038 187 send /mapmap/paint/uri 1 /home/ray/scenes/Sc_3_7.png
;
#X msg 1055 231 send /mapmap/paint/uri 1 /home/ray/scenes/Sc_3_9.png
;
#X msg 1075 278 send /mapmap/paint/uri 1 /home/ray/scenes/Sc_4_2.png
;
#X msg 1091 322 send /mapmap/paint/uri 1 /home/ray/scenes/Sc_4_4.png
;
#X obj 5 -2 noteout;
#X obj 6 -45 t b b;
#X msg 33 -25 1;
#X obj 62 -2 noteout;
#X obj 63 -45 t b b;
#X msg 90 -25 1;
#X obj 119 -2 noteout;
#X obj 120 -45 t b b;
#X msg 147 -25 1;
#X obj 176 -2 noteout;
#X obj 177 -45 t b b;
#X msg 204 -25 1;
#X obj 236 -2 noteout;
#X obj 237 -45 t b b;
#X msg 264 -25 1;
#X obj 293 -2 noteout;
#X obj 294 -45 t b b;
#X msg 321 -25 1;
#X obj 350 -2 noteout;
#X obj 351 -45 t b b;
#X msg 378 -25 1;
#X obj 407 -2 noteout;
#X obj 408 -45 t b b;
#X msg 435 -25 1;
#X obj 5 82 noteout;
#X obj 6 39 t b b;
#X msg 33 59 1;
#X obj 62 82 noteout;
#X obj 63 39 t b b;
#X msg 90 59 1;
#X obj 119 82 noteout;
#X obj 120 39 t b b;
#X msg 147 59 1;
#X obj 176 82 noteout;
#X obj 180 39 t b b;
#X msg 204 59 1;
#X obj 236 82 noteout;
#X obj 237 39 t b b;
#X msg 264 59 1;
#X obj 293 82 noteout;
#X obj 294 39 t b b;
#X msg 321 59 1;
#X obj 350 82 noteout;
#X obj 351 39 t b b;
#X msg 378 59 1;
#X obj 407 82 noteout;
#X obj 408 39 t b b;
#X msg 435 59 1;
#X obj 1 174 noteout;
#X obj 2 131 t b b;
#X msg 29 151 1;
#X obj 58 174 noteout;
#X obj 59 131 t b b;
#X msg 86 151 1;
#X obj 115 174 noteout;
#X obj 116 131 t b b;
#X msg 143 151 1;
#X obj 172 174 noteout;
#X obj 173 131 t b b;
#X msg 200 151 1;
#X obj 232 174 noteout;
#X obj 233 131 t b b;
#X msg 260 151 1;
#X obj 289 174 noteout;
#X obj 290 131 t b b;
#X msg 317 151 1;
#X obj 346 174 noteout;
#X obj 347 131 t b b;
#X msg 374 151 1;
#X obj 403 174 noteout;
#X obj 404 131 t b b;
#X msg 431 151 1;
#X obj 408 -66 r n55;
#X msg 407 -25 55;
#X msg 350 -25 54;
#X msg 293 -25 53;
#X msg 236 -25 52;
#X msg 176 -25 51;
#X msg 119 -25 50;
#X msg 62 -25 49;
#X msg 5 -25 48;
#X obj 6 -66 r n48;
#X obj 63 -66 r n49;
#X obj 120 -66 r n50;
#X obj 177 -66 r n51;
#X obj 237 -66 r n52;
#X obj 295 -66 r n53;
#X obj 351 -66 r n54;
#X msg 407 59 47;
#X msg 350 59 46;
#X msg 293 59 45;
#X msg 236 59 44;
#X msg 176 59 43;
#X msg 119 59 42;
#X msg 62 59 41;
#X msg 5 59 40;
#X obj 6 18 r n40;
#X obj 63 18 r n41;
#X obj 120 18 r n42;
#X obj 177 18 r n43;
#X obj 237 18 r n44;
#X obj 294 18 r n45;
#X obj 351 18 r n46;
#X obj 408 18 r n47;
#X msg 403 151 39;
#X msg 346 151 38;
#X msg 289 151 37;
#X msg 232 151 36;
#X msg 172 151 35;
#X msg 115 151 34;
#X msg 58 151 33;
#X msg 1 151 32;
#X obj 404 110 r n39;
#X obj 347 110 r n38;
#X obj 290 110 r n37;
#X obj 233 110 r n36;
#X obj 173 110 r n35;
#X obj 116 110 r n34;
#X obj 59 110 r n33;
#X obj 2 110 r n32;
#X obj 5 255 noteout;
#X obj 6 212 t b b;
#X msg 33 232 1;
#X obj 62 255 noteout;
#X obj 63 212 t b b;
#X msg 90 232 1;
#X obj 119 255 noteout;
#X obj 120 212 t b b;
#X msg 147 232 1;
#X obj 176 255 noteout;
#X obj 180 212 t b b;
#X msg 204 232 1;
#X obj 236 255 noteout;
#X obj 237 212 t b b;
#X msg 264 232 1;
#X obj 293 255 noteout;
#X obj 294 212 t b b;
#X msg 321 232 1;
#X obj 350 255 noteout;
#X obj 351 212 t b b;
#X msg 378 232 1;
#X obj 407 255 noteout;
#X obj 408 212 t b b;
#X msg 435 232 1;
#X obj 1 343 noteout;
#X obj 2 300 t b b;
#X msg 29 320 1;
#X obj 58 343 noteout;
#X obj 59 300 t b b;
#X msg 86 320 1;
#X obj 115 343 noteout;
#X obj 116 300 t b b;
#X msg 143 320 1;
#X obj 172 343 noteout;
#X obj 173 300 t b b;
#X msg 200 320 1;
#X obj 232 343 noteout;
#X obj 233 300 t b b;
#X msg 260 320 1;
#X obj 289 343 noteout;
#X obj 290 300 t b b;
#X msg 317 320 1;
#X obj 346 343 noteout;
#X obj 347 300 t b b;
#X msg 374 320 1;
#X obj 403 343 noteout;
#X obj 404 300 t b b;
#X msg 431 320 1;
#X obj 1 427 noteout;
#X obj 2 384 t b b;
#X msg 29 404 1;
#X obj 58 427 noteout;
#X obj 59 384 t b b;
#X msg 86 404 1;
#X obj 115 427 noteout;
#X obj 116 384 t b b;
#X msg 143 404 1;
#X obj 172 427 noteout;
#X obj 176 384 t b b;
#X msg 200 404 1;
#X obj 232 427 noteout;
#X obj 233 384 t b b;
#X msg 260 404 1;
#X obj 289 427 noteout;
#X obj 290 384 t b b;
#X msg 317 404 1;
#X obj 346 427 noteout;
#X obj 347 384 t b b;
#X msg 374 404 1;
#X obj 403 427 noteout;
#X obj 404 384 t b b;
#X msg 431 404 1;
#X obj -3 519 noteout;
#X obj -2 476 t b b;
#X msg 25 496 1;
#X obj 54 519 noteout;
#X obj 55 476 t b b;
#X msg 82 496 1;
#X obj 111 519 noteout;
#X obj 112 476 t b b;
#X msg 139 496 1;
#X obj 168 519 noteout;
#X obj 169 476 t b b;
#X msg 196 496 1;
#X obj 228 519 noteout;
#X obj 229 476 t b b;
#X msg 256 496 1;
#X obj 285 519 noteout;
#X obj 286 476 t b b;
#X msg 313 496 1;
#X obj 342 519 noteout;
#X obj 343 476 t b b;
#X msg 370 496 1;
#X obj 399 519 noteout;
#X obj 400 476 t b b;
#X msg 427 496 1;
#X obj 408 191 r n31;
#X msg 407 232 31;
#X msg 350 232 30;
#X msg 293 232 29;
#X msg 236 232 28;
#X msg 176 232 27;
#X msg 119 232 26;
#X msg 62 232 25;
#X msg 5 232 24;
#X obj 351 191 r n30;
#X obj 294 191 r n29;
#X obj 237 191 r n28;
#X obj 177 191 r n27;
#X obj 63 191 r n25;
#X obj 6 191 r n24;
#X msg 403 320 23;
#X msg 346 320 22;
#X msg 289 320 21;
#X msg 232 320 20;
#X msg 172 320 19;
#X msg 115 320 18;
#X msg 58 320 17;
#X msg 1 320 16;
#X obj 404 279 r n23;
#X obj 347 279 r n22;
#X obj 291 279 r n21;
#X obj 233 279 r n20;
#X obj 173 279 r n19;
#X obj 116 279 r n18;
#X obj 59 279 r n17;
#X obj 2 279 r n16;
#X msg 403 404 15;
#X msg 346 404 14;
#X msg 289 404 13;
#X msg 232 404 12;
#X msg 172 404 11;
#X msg 115 404 10;
#X msg 58 404 9;
#X msg 1 404 8;
#X obj 404 363 r n15;
#X obj 347 363 r n14;
#X obj 290 363 r n13;
#X obj 233 363 r n12;
#X obj 174 363 r n11;
#X obj 116 363 r n10;
#X obj 59 363 r n9;
#X obj 2 363 r n8;
#X msg 399 496 7;
#X msg 342 496 6;
#X msg 285 496 5;
#X msg 228 496 4;
#X msg 168 496 3;
#X msg 111 496 2;
#X msg 54 496 1;
#X msg -3 496 0;
#X obj 400 455 r n7;
#X obj 343 455 r n6;
#X obj 286 455 r n5;
#X obj 229 455 r n4;
#X obj 169 455 r n3;
#X obj 112 455 r n2;
#X obj 55 455 r n1;
#X obj -2 455 r n0;
#X obj 120 191 r n26;
#X msg 631 -642 send /mapmap/play;
#X msg 642 -600 send /mapmap/pause;
#X obj 631 -663 r n82;
#X obj 642 -622 r n83;
#X obj 643 -446 packOSC;
#X msg 845 -730 0;
#X msg 878 -732 1;
#X msg 852 -706 send /mapmap/mapping/visible 1 \$1;
#X obj 837 -755 r n64;
#X obj 879 -755 r n65;
#X msg 855 -653 0;
#X msg 888 -655 1;
#X msg 862 -629 send /mapmap/mapping/visible 2 \$1;
#X msg 862 -605 send /mapmap/mapping/visible 3 \$1;
#X obj 847 -678 r n66;
#X obj 889 -678 r n67;
#X msg 868 -552 0;
#X msg 901 -554 1;
#X obj 860 -577 r n68;
#X obj 902 -577 r n69;
#X msg 875 -528 send /mapmap/mapping/visible 4 \$1;
#X msg 875 -504 send /mapmap/mapping/visible 5 \$1;
#X connect 1 0 3 0;
#X connect 2 0 1 0;
#X connect 2 1 1 1;
#X connect 5 0 155 0;
#X connect 6 0 156 0;
#X connect 7 0 157 0;
#X connect 8 0 158 0;
#X connect 9 0 159 0;
#X connect 10 0 160 0;
#X connect 11 0 161 0;
#X connect 12 0 162 0;
#X connect 13 0 147 0;
#X connect 14 0 148 0;
#X connect 15 0 149 0;
#X connect 16 0 150 0;
#X connect 17 0 151 0;
#X connect 18 0 152 0;
#X connect 19 0 153 0;
#X connect 20 0 154 0;
#X connect 21 0 139 0;
#X connect 22 0 140 0;
#X connect 23 0 141 0;
#X connect 24 0 142 0;
#X connect 25 0 143 0;
#X connect 26 0 144 0;
#X connect 27 0 145 0;
#X connect 28 0 146 0;
#X connect 29 0 132 0;
#X connect 30 0 133 0;
#X connect 31 0 134 0;
#X connect 32 0 135 0;
#X connect 33 0 136 0;
#X connect 34 0 137 0;
#X connect 35 0 121 0;
#X connect 36 0 122 0;
#X connect 37 0 123 0;
#X connect 38 0 124 0;
#X connect 39 0 125 0;
#X connect 40 0 126 0;
#X connect 41 0 127 0;
#X connect 42 0 128 0;
#X connect 43 0 131 0;
#X connect 44 0 130 0;
#X connect 45 0 112 0;
#X connect 46 0 113 0;
#X connect 47 0 114 0;
#X connect 48 0 115 0;
#X connect 49 0 116 0;
#X connect 50 0 117 0;
#X connect 51 0 118 0;
#X connect 52 0 119 0;
#X connect 53 0 103 0;
#X connect 54 0 104 0;
#X connect 55 0 105 0;
#X connect 56 0 106 0;
#X connect 57 0 107 0;
#X connect 58 0 108 0;
#X connect 59 0 109 0;
#X connect 60 0 110 0;
#X connect 61 0 95 0;
#X connect 62 0 96 0;
#X connect 63 0 97 0;
#X connect 64 0 98 0;
#X connect 65 0 99 0;
#X connect 66 0 100 0;
#X connect 67 0 101 0;
#X connect 68 0 102 0;
#X connect 69 0 163 0;
#X connect 70 0 164 0;
#X connect 71 0 165 0;
#X connect 72 0 166 0;
#X connect 73 0 167 0;
#X connect 74 0 168 0;
#X connect 75 0 169 0;
#X connect 76 0 170 0;
#X connect 77 0 295 0;
#X connect 78 0 111 0;
#X connect 79 0 120 0;
#X connect 80 0 129 0;
#X connect 81 0 138 0;
#X connect 82 0 171 0;
#X connect 83 0 294 0;
#X connect 84 0 293 0;
#X connect 85 0 292 0;
#X connect 86 0 69 0;
#X connect 86 0 5 0;
#X connect 86 0 13 0;
#X connect 86 0 21 0;
#X connect 86 0 44 0;
#X connect 86 0 35 0;
#X connect 86 0 45 0;
#X connect 86 0 53 0;
#X connect 86 0 61 0;
#X connect 87 0 70 0;
#X connect 87 0 6 0;
#X connect 87 0 14 0;
#X connect 87 0 22 0;
#X connect 87 0 43 0;
#X connect 87 0 36 0;
#X connect 87 0 46 0;
#X connect 87 0 54 0;
#X connect 87 0 62 0;
#X connect 88 0 71 0;
#X connect 88 0 7 0;
#X connect 88 0 15 0;
#X connect 88 0 23 0;
#X connect 88 0 29 0;
#X connect 88 0 37 0;
#X connect 88 0 47 0;
#X connect 88 0 55 0;
#X connect 88 0 63 0;
#X connect 89 0 72 0;
#X connect 89 0 8 0;
#X connect 89 0 16 0;
#X connect 89 0 24 0;
#X connect 89 0 30 0;
#X connect 89 0 38 0;
#X connect 89 0 48 0;
#X connect 89 0 56 0;
#X connect 89 0 64 0;
#X connect 90 0 73 0;
#X connect 90 0 9 0;
#X connect 90 0 17 0;
#X connect 90 0 25 0;
#X connect 90 0 31 0;
#X connect 90 0 39 0;
#X connect 90 0 49 0;
#X connect 90 0 57 0;
#X connect 90 0 65 0;
#X connect 91 0 74 0;
#X connect 91 0 10 0;
#X connect 91 0 18 0;
#X connect 91 0 26 0;
#X connect 91 0 32 0;
#X connect 91 0 40 0;
#X connect 91 0 50 0;
#X connect 91 0 58 0;
#X connect 91 0 66 0;
#X connect 92 0 75 0;
#X connect 92 0 11 0;
#X connect 92 0 19 0;
#X connect 92 0 27 0;
#X connect 92 0 33 0;
#X connect 92 0 41 0;
#X connect 92 0 51 0;
#X connect 92 0 59 0;
#X connect 92 0 67 0;
#X connect 93 0 76 0;
#X connect 93 0 20 0;
#X connect 93 0 28 0;
#X connect 93 0 34 0;
#X connect 93 0 42 0;
#X connect 93 0 52 0;
#X connect 93 0 60 0;
#X connect 93 0 68 0;
#X connect 94 0 84 0;
#X connect 94 0 83 0;
#X connect 94 0 82 0;
#X connect 94 0 81 0;
#X connect 94 0 80 0;
#X connect 94 0 79 0;
#X connect 94 0 78 0;
#X connect 94 0 77 0;
#X connect 94 0 85 0;
#X connect 172 0 174 0;
#X connect 174 0 173 0;
#X connect 175 0 174 0;
#X connect 176 0 219 0;
#X connect 177 0 219 0;
#X connect 178 0 219 0;
#X connect 179 0 219 0;
#X connect 180 0 219 0;
#X connect 181 0 219 0;
#X connect 182 0 219 0;
#X connect 183 0 219 0;
#X connect 184 0 219 0;
#X connect 185 0 219 0;
#X connect 186 0 219 0;
#X connect 187 0 219 0;
#X connect 188 0 219 0;
#X connect 189 0 219 0;
#X connect 190 0 219 0;
#X connect 191 0 219 0;
#X connect 219 0 174 0;
#X connect 220 0 176 0;
#X connect 221 0 296 0;
#X connect 222 0 177 0;
#X connect 223 0 297 0;
#X connect 224 0 178 0;
#X connect 225 0 298 0;
#X connect 226 0 179 0;
#X connect 227 0 299 0;
#X connect 228 0 180 0;
#X connect 229 0 300 0;
#X connect 230 0 181 0;
#X connect 231 0 301 0;
#X connect 232 0 182 0;
#X connect 233 0 302 0;
#X connect 234 0 183 0;
#X connect 235 0 303 0;
#X connect 236 0 184 0;
#X connect 237 0 304 0;
#X connect 238 0 185 0;
#X connect 239 0 305 0;
#X connect 240 0 186 0;
#X connect 241 0 306 0;
#X connect 242 0 187 0;
#X connect 243 0 307 0;
#X connect 244 0 188 0;
#X connect 245 0 308 0;
#X connect 246 0 189 0;
#X connect 247 0 309 0;
#X connect 248 0 190 0;
#X connect 249 0 310 0;
#X connect 250 0 191 0;
#X connect 251 0 311 0;
#X connect 253 0 256 0;
#X connect 253 1 254 0;
#X connect 254 0 252 1;
#X connect 255 0 253 0;
#X connect 256 0 252 0;
#X connect 258 0 261 0;
#X connect 258 1 259 0;
#X connect 259 0 257 1;
#X connect 260 0 258 0;
#X connect 261 0 257 0;
#X connect 263 0 270 0;
#X connect 263 1 264 0;
#X connect 264 0 262 1;
#X connect 266 0 271 0;
#X connect 266 1 267 0;
#X connect 267 0 265 1;
#X connect 268 0 263 0;
#X connect 269 0 266 0;
#X connect 270 0 262 0;
#X connect 271 0 265 0;
#X connect 273 0 284 0;
#X connect 273 1 274 0;
#X connect 274 0 272 1;
#X connect 276 0 285 0;
#X connect 276 1 277 0;
#X connect 277 0 275 1;
#X connect 279 0 286 0;
#X connect 279 1 280 0;
#X connect 280 0 278 1;
#X connect 282 0 287 0;
#X connect 282 1 283 0;
#X connect 283 0 281 1;
#X connect 284 0 272 0;
#X connect 285 0 275 0;
#X connect 286 0 278 0;
#X connect 287 0 281 0;
#X connect 288 0 273 0;
#X connect 289 0 276 0;
#X connect 290 0 279 0;
#X connect 291 0 282 0;
#X connect 296 0 219 0;
#X connect 297 0 219 0;
#X connect 298 0 219 0;
#X connect 299 0 219 0;
#X connect 300 0 219 0;
#X connect 301 0 219 0;
#X connect 302 0 219 0;
#X connect 303 0 219 0;
#X connect 304 0 219 0;
#X connect 305 0 219 0;
#X connect 306 0 219 0;
#X connect 307 0 219 0;
#X connect 308 0 219 0;
#X connect 309 0 219 0;
#X connect 310 0 219 0;
#X connect 313 0 392 0;
#X connect 313 1 314 0;
#X connect 314 0 312 1;
#X connect 316 0 391 0;
#X connect 316 1 317 0;
#X connect 317 0 315 1;
#X connect 319 0 390 0;
#X connect 319 1 320 0;
#X connect 320 0 318 1;
#X connect 322 0 389 0;
#X connect 322 1 323 0;
#X connect 323 0 321 1;
#X connect 325 0 388 0;
#X connect 325 1 326 0;
#X connect 326 0 324 1;
#X connect 328 0 387 0;
#X connect 328 1 329 0;
#X connect 329 0 327 1;
#X connect 331 0 386 0;
#X connect 331 1 332 0;
#X connect 332 0 330 1;
#X connect 334 0 385 0;
#X connect 334 1 335 0;
#X connect 335 0 333 1;
#X connect 337 0 407 0;
#X connect 337 1 338 0;
#X connect 338 0 336 1;
#X connect 340 0 406 0;
#X connect 340 1 341 0;
#X connect 341 0 339 1;
#X connect 343 0 405 0;
#X connect 343 1 344 0;
#X connect 344 0 342 1;
#X connect 346 0 404 0;
#X connect 346 1 347 0;
#X connect 347 0 345 1;
#X connect 349 0 403 0;
#X connect 349 1 350 0;
#X connect 350 0 348 1;
#X connect 352 0 402 0;
#X connect 352 1 353 0;
#X connect 353 0 351 1;
#X connect 355 0 401 0;
#X connect 355 1 356 0;
#X connect 356 0 354 1;
#X connect 358 0 400 0;
#X connect 358 1 359 0;
#X connect 359 0 357 1;
#X connect 361 0 423 0;
#X connect 361 1 362 0;
#X connect 362 0 360 1;
#X connect 364 0 422 0;
#X connect 364 1 365 0;
#X connect 365 0 363 1;
#X connect 367 0 421 0;
#X connect 367 1 368 0;
#X connect 368 0 366 1;
#X connect 370 0 420 0;
#X connect 370 1 371 0;
#X connect 371 0 369 1;
#X connect 373 0 419 0;
#X connect 373 1 374 0;
#X connect 374 0 372 1;
#X connect 376 0 418 0;
#X connect 376 1 377 0;
#X connect 377 0 375 1;
#X connect 379 0 417 0;
#X connect 379 1 380 0;
#X connect 380 0 378 1;
#X connect 382 0 416 0;
#X connect 382 1 383 0;
#X connect 383 0 381 1;
#X connect 384 0 334 0;
#X connect 385 0 333 0;
#X connect 386 0 330 0;
#X connect 387 0 327 0;
#X connect 388 0 324 0;
#X connect 389 0 321 0;
#X connect 390 0 318 0;
#X connect 391 0 315 0;
#X connect 392 0 312 0;
#X connect 393 0 313 0;
#X connect 394 0 316 0;
#X connect 395 0 319 0;
#X connect 396 0 322 0;
#X connect 397 0 325 0;
#X connect 398 0 328 0;
#X connect 399 0 331 0;
#X connect 400 0 357 0;
#X connect 401 0 354 0;
#X connect 402 0 351 0;
#X connect 403 0 348 0;
#X connect 404 0 345 0;
#X connect 405 0 342 0;
#X connect 406 0 339 0;
#X connect 407 0 336 0;
#X connect 408 0 337 0;
#X connect 409 0 340 0;
#X connect 410 0 343 0;
#X connect 411 0 346 0;
#X connect 412 0 349 0;
#X connect 413 0 352 0;
#X connect 414 0 355 0;
#X connect 415 0 358 0;
#X connect 416 0 381 0;
#X connect 417 0 378 0;
#X connect 418 0 375 0;
#X connect 419 0 372 0;
#X connect 420 0 369 0;
#X connect 421 0 366 0;
#X connect 422 0 363 0;
#X connect 423 0 360 0;
#X connect 424 0 382 0;
#X connect 425 0 379 0;
#X connect 426 0 376 0;
#X connect 427 0 373 0;
#X connect 428 0 370 0;
#X connect 429 0 367 0;
#X connect 430 0 364 0;
#X connect 431 0 361 0;
#X connect 433 0 536 0;
#X connect 433 1 434 0;
#X connect 434 0 432 1;
#X connect 436 0 535 0;
#X connect 436 1 437 0;
#X connect 437 0 435 1;
#X connect 439 0 534 0;
#X connect 439 1 440 0;
#X connect 440 0 438 1;
#X connect 442 0 533 0;
#X connect 442 1 443 0;
#X connect 443 0 441 1;
#X connect 445 0 532 0;
#X connect 445 1 446 0;
#X connect 446 0 444 1;
#X connect 448 0 531 0;
#X connect 448 1 449 0;
#X connect 449 0 447 1;
#X connect 451 0 530 0;
#X connect 451 1 452 0;
#X connect 452 0 450 1;
#X connect 454 0 529 0;
#X connect 454 1 455 0;
#X connect 455 0 453 1;
#X connect 457 0 550 0;
#X connect 457 1 458 0;
#X connect 458 0 456 1;
#X connect 460 0 549 0;
#X connect 460 1 461 0;
#X connect 461 0 459 1;
#X connect 463 0 548 0;
#X connect 463 1 464 0;
#X connect 464 0 462 1;
#X connect 466 0 547 0;
#X connect 466 1 467 0;
#X connect 467 0 465 1;
#X connect 469 0 546 0;
#X connect 469 1 470 0;
#X connect 470 0 468 1;
#X connect 472 0 545 0;
#X connect 472 1 473 0;
#X connect 473 0 471 1;
#X connect 475 0 544 0;
#X connect 475 1 476 0;
#X connect 476 0 474 1;
#X connect 478 0 543 0;
#X connect 478 1 479 0;
#X connect 479 0 477 1;
#X connect 481 0 566 0;
#X connect 481 1 482 0;
#X connect 482 0 480 1;
#X connect 484 0 565 0;
#X connect 484 1 485 0;
#X connect 485 0 483 1;
#X connect 487 0 564 0;
#X connect 487 1 488 0;
#X connect 488 0 486 1;
#X connect 490 0 563 0;
#X connect 490 1 491 0;
#X connect 491 0 489 1;
#X connect 493 0 562 0;
#X connect 493 1 494 0;
#X connect 494 0 492 1;
#X connect 496 0 561 0;
#X connect 496 1 497 0;
#X connect 497 0 495 1;
#X connect 499 0 560 0;
#X connect 499 1 500 0;
#X connect 500 0 498 1;
#X connect 502 0 559 0;
#X connect 502 1 503 0;
#X connect 503 0 501 1;
#X connect 505 0 582 0;
#X connect 505 1 506 0;
#X connect 506 0 504 1;
#X connect 508 0 581 0;
#X connect 508 1 509 0;
#X connect 509 0 507 1;
#X connect 511 0 580 0;
#X connect 511 1 512 0;
#X connect 512 0 510 1;
#X connect 514 0 579 0;
#X connect 514 1 515 0;
#X connect 515 0 513 1;
#X connect 517 0 578 0;
#X connect 517 1 518 0;
#X connect 518 0 516 1;
#X connect 520 0 577 0;
#X connect 520 1 521 0;
#X connect 521 0 519 1;
#X connect 523 0 576 0;
#X connect 523 1 524 0;
#X connect 524 0 522 1;
#X connect 526 0 575 0;
#X connect 526 1 527 0;
#X connect 527 0 525 1;
#X connect 528 0 454 0;
#X connect 529 0 453 0;
#X connect 530 0 450 0;
#X connect 531 0 447 0;
#X connect 532 0 444 0;
#X connect 533 0 441 0;
#X connect 534 0 438 0;
#X connect 535 0 435 0;
#X connect 536 0 432 0;
#X connect 537 0 451 0;
#X connect 538 0 448 0;
#X connect 539 0 445 0;
#X connect 540 0 442 0;
#X connect 541 0 436 0;
#X connect 542 0 433 0;
#X connect 543 0 477 0;
#X connect 544 0 474 0;
#X connect 545 0 471 0;
#X connect 546 0 468 0;
#X connect 547 0 465 0;
#X connect 548 0 462 0;
#X connect 549 0 459 0;
#X connect 550 0 456 0;
#X connect 551 0 478 0;
#X connect 552 0 475 0;
#X connect 553 0 472 0;
#X connect 554 0 469 0;
#X connect 555 0 466 0;
#X connect 556 0 463 0;
#X connect 557 0 460 0;
#X connect 558 0 457 0;
#X connect 559 0 501 0;
#X connect 560 0 498 0;
#X connect 561 0 495 0;
#X connect 562 0 492 0;
#X connect 563 0 489 0;
#X connect 564 0 486 0;
#X connect 565 0 483 0;
#X connect 566 0 480 0;
#X connect 567 0 502 0;
#X connect 568 0 499 0;
#X connect 569 0 496 0;
#X connect 570 0 493 0;
#X connect 571 0 490 0;
#X connect 572 0 487 0;
#X connect 573 0 484 0;
#X connect 574 0 481 0;
#X connect 575 0 525 0;
#X connect 576 0 522 0;
#X connect 577 0 519 0;
#X connect 578 0 516 0;
#X connect 579 0 513 0;
#X connect 580 0 510 0;
#X connect 581 0 507 0;
#X connect 582 0 504 0;
#X connect 583 0 526 0;
#X connect 584 0 523 0;
#X connect 585 0 520 0;
#X connect 586 0 517 0;
#X connect 587 0 514 0;
#X connect 588 0 511 0;
#X connect 589 0 508 0;
#X connect 590 0 505 0;
#X connect 591 0 439 0;
#X connect 592 0 596 0;
#X connect 593 0 596 0;
#X connect 594 0 592 0;
#X connect 595 0 593 0;
#X connect 596 0 174 0;
#X connect 597 0 599 0;
#X connect 598 0 599 0;
#X connect 599 0 596 0;
#X connect 600 0 597 0;
#X connect 601 0 598 0;
#X connect 602 0 604 0;
#X connect 602 0 605 0;
#X connect 603 0 604 0;
#X connect 603 0 605 0;
#X connect 604 0 596 0;
#X connect 605 0 596 0;
#X connect 606 0 602 0;
#X connect 607 0 603 0;
#X connect 608 0 612 0;
#X connect 608 0 613 0;
#X connect 609 0 612 0;
#X connect 609 0 613 0;
#X connect 610 0 608 0;
#X connect 611 0 609 0;
#X connect 612 0 596 0;
#X connect 613 0 596 0;
