#N canvas 0 85 1366 683 10;
#X declare -lib oscx;
#X obj 25 14 import oscx;
#X obj 80 298 sendOSC;
#X floatatom 79 323 5 0 0 0 - - -;
#X msg 113 271 disconnect;
#X floatatom 123 322 5 0 0 0 - - -;
#X msg 21 164 send /kuva \$1;
#X floatatom 20 140 5 0 0 0 - - -;
#X floatatom 122 148 5 0 0 0 - - -;
#X floatatom 342 295 5 0 0 0 - - -;
#X obj 338 312 print kuva;
#X msg 122 164 send /space \$1;
#X obj 340 231 dumpOSC 30200;
#X msg 109 249 connect localhost 30200;
#X floatatom 231 147 5 0 0 0 - - -;
#X msg 231 163 send /asdf \$1;
#X obj 339 259 OSCroute /kuva /space;
#X obj 414 312 print space;
#X obj 498 312 print other;
#X floatatom 421 295 5 0 0 0 - - -;
#X text 21 361 On the most basic level \, it works very similarly to
[netsend] and [netreceive].;
#X connect 1 0 2 0;
#X connect 1 1 4 0;
#X connect 3 0 1 0;
#X connect 5 0 1 0;
#X connect 6 0 5 0;
#X connect 7 0 10 0;
#X connect 10 0 1 0;
#X connect 11 0 15 0;
#X connect 12 0 1 0;
#X connect 13 0 14 0;
#X connect 14 0 1 0;
#X connect 15 0 8 0;
#X connect 15 0 9 0;
#X connect 15 1 16 0;
#X connect 15 1 18 0;
#X connect 15 2 17 0;
